<?xml version="1.0" encoding="utf-8"?>
<!-- Generator: Adobe Illustrator 27.4.1, SVG Export Plug-In . SVG Version: 6.00 Build 0)  -->
<svg version="1.1" id="Layer_1" xmlns="http://www.w3.org/2000/svg" xmlns:xlink="http://www.w3.org/1999/xlink" x="0px" y="0px"
	 width="104px" height="46.6px" viewBox="0 0 104 46.6" style="enable-background:new 0 0 104 46.6;" xml:space="preserve">
<style type="text/css">
	.st0{clip-path:url(#SVGID_00000111898473244212480310000011040395190914985092_);fill:#D40029;}
</style>
<g>
	<defs>
		<rect id="SVGID_1_" y="0.7" width="104" height="56"/>
	</defs>
	<clipPath id="SVGID_00000132787971727977585700000017532958107825466003_">
		<use xlink:href="#SVGID_1_"  style="overflow:visible;"/>
	</clipPath>
	<path style="clip-path:url(#SVGID_00000132787971727977585700000017532958107825466003_);fill:#D40029;" d="M36.5,26.2
		c0,0.9-0.4,2.6,0.3,5.6c0,0,2,14.6,16.9,14.9c4.3-0.3,6.1-1.1,8.3-2.2c8.3-4,9.7-13.1,9.7-13.1h-7.8c-4.5,10.1-13.3,6.7-13.3,6.7
		l4.9-23.1c9.5,0.3,9.8,9.1,9.8,9.1h7.9c0,0,0.6-9.3-8.6-14.9c-1.9-1.1-5-1.9-8-2C56.7,7.3,39.9,6.3,36.5,26.2"/>
	<path style="clip-path:url(#SVGID_00000132787971727977585700000017532958107825466003_);fill:#D40029;" d="M104,9.8l-1.5,7.2H89.2
		l-1.5,7.2h13.3l-1.5,7.2H86.1l-1.5,7.2h13.3l-1.5,7.2H69.6l7.6-35.9H104"/>
	<path style="clip-path:url(#SVGID_00000132787971727977585700000017532958107825466003_);fill:#D40029;" d="M19.7,45.8l-4.3-22.9
		L0.1,45.8H19.7z"/>
	<path style="clip-path:url(#SVGID_00000132787971727977585700000017532958107825466003_);fill:#D40029;" d="M38.5,45.8H23.9
		l-5.2-27.8L30.2,0.8L38.5,45.8"/>
	<path style="clip-path:url(#SVGID_00000132787971727977585700000017532958107825466003_);fill:#D40029;" d="M99.6,43.8
		c0.3,0,0.5,0,0.5-0.3c0-0.3-0.2-0.3-0.5-0.3h-0.4v0.7H99.6L99.6,43.8z M99.2,45h-0.3v-2.1h0.8c0.5,0,0.8,0.2,0.8,0.6
		c0,0.4-0.2,0.5-0.6,0.6l0.6,0.9h-0.4l-0.6-0.9h-0.4V45z M99.6,45.5c0.8,0,1.5-0.7,1.5-1.5c0-0.9-0.7-1.5-1.5-1.5
		c-0.9,0-1.5,0.7-1.5,1.5C98.1,44.8,98.8,45.5,99.6,45.5z M97.7,43.9c0-1.1,0.9-1.8,1.9-1.8c1,0,1.9,0.8,1.9,1.8
		c0,1.1-0.9,1.9-1.9,1.9C98.6,45.8,97.7,45,97.7,43.9z"/>
</g>
</svg>
