<svg width="216" height="252" viewBox="0 0 216 252" fill="none" xmlns="http://www.w3.org/2000/svg"><path fill-rule="evenodd" clip-rule="evenodd" d="M0 0h216v252l-108-31L0 252V0z" fill="#D40029"/><g clip-path="url(#clip0)" fill="#fff"><path d="M119.493 96.527l-.065 3.375-2.521-2.055-3.098 1.04 1.141-3.175-1.836-2.731 3.222.086 1.956-2.726.853 3.235 3.049 1.041-2.701 1.91zM37.91 69.476c-.01.612-.244 1.685.18 3.654 0 0 1.298 9.485 11.08 9.673 2.815-.188 4-.719 5.45-1.416 5.434-2.624 6.342-8.51 6.342-8.51h-5.114c-2.956 6.59-8.705 4.379-8.705 4.379l3.233-14.996c6.211.167 6.445 5.945 6.445 5.945h5.195s.364-6.068-5.63-9.668c-1.228-.735-3.25-1.256-5.233-1.304.006 0-11.058-.687-13.243 12.243zM82.188 58.864l-1.017 4.673h-8.705l-1.01 4.668h8.721l-.989 4.673h-8.727l-.995 4.673h8.728l-1.017 4.651H59.603l5.005-23.338h17.58zM14 82.245h12.884L24.06 67.352 14 82.245zM33.731 53l-7.52 11.138 3.38 18.107h9.612L33.731 53zM21.88 98.416h3.793c1.14 0 2-.295 2.57-.891.576-.59.864-1.416.864-2.479 0-1.062-.294-1.894-.87-2.495-.581-.6-1.434-.906-2.564-.906h-3.794v6.77zm3.25 4.555h-3.25v8.691h-6V87.09h9.792c2.951 0 5.26.649 6.924 1.937 1.662 1.293 2.494 3.117 2.494 5.477 0 1.706-.353 3.123-1.049 4.25-.7 1.12-1.799 2.033-3.293 2.73l5.195 9.92v.253H29.52l-4.39-8.686zM58.354 101.232H48.92v5.875h11.145v4.555h-17.15V87.09h17.183v4.576H48.92v5.178h9.434v4.388zM86.535 102.498l2.853-15.408h5.95l-5.282 24.572h-6.222l-3.336-14.008-3.26 14.008H71.03L65.733 87.09h5.961l2.859 15.408L77.97 87.09h5.092l3.472 15.408z"/><path d="M106.321 102.498h5.352l-2.684-8.525-2.668 8.525zm6.787 4.577h-8.222l-1.434 4.592h-6.407l9.129-24.572h5.641l9.194 24.572h-6.445l-1.456-4.592zM133.562 98.416h3.793c1.141 0 2-.295 2.571-.891.576-.59.864-1.416.864-2.479 0-1.062-.294-1.894-.87-2.495-.581-.6-1.435-.906-2.565-.906h-3.793v6.77zm3.244 4.555h-3.249v8.691h-6V87.09h9.798c2.951 0 5.26.649 6.923 1.937 1.663 1.293 2.495 3.117 2.495 5.477 0 1.706-.354 3.123-1.049 4.25-.701 1.12-1.799 2.033-3.293 2.73l5.195 9.92v.253h-6.429l-4.391-8.686zM160.054 91.666v15.441h2.086c1.723 0 3.044-.606 3.967-1.813.924-1.213 1.386-3.005 1.386-5.392v-1.063c0-2.376-.462-4.163-1.386-5.365-.923-1.202-2.266-1.808-4.032-1.808h-2.021zm-6 19.996V87.09h8.016c2.201 0 4.179.493 5.934 1.475 1.755.987 3.125 2.372 4.114 4.169.983 1.792 1.483 3.804 1.494 6.03v1.132c0 2.254-.484 4.266-1.446 6.052a10.498 10.498 0 0 1-4.07 4.185c-1.75 1.009-3.7 1.518-5.852 1.529h-8.19zM192.093 105.133c0-.869-.309-1.54-.929-2.023-.619-.483-1.712-.987-3.277-1.502-1.559-.521-2.836-1.02-3.831-1.502-3.222-1.562-4.836-3.713-4.836-6.45 0-1.362.402-2.564 1.206-3.605.805-1.04 1.94-1.85 3.407-2.43 1.473-.58 3.125-.87 4.956-.87 1.788 0 3.391.317 4.81.945 1.418.628 2.521 1.53 3.309 2.693.788 1.165 1.179 2.495 1.179 3.992h-5.983c0-1.003-.309-1.776-.934-2.329-.62-.552-1.462-.826-2.522-.826-1.07 0-1.918.231-2.538.698-.619.467-.929 1.062-.929 1.781 0 .628.342 1.202 1.027 1.712.685.514 1.886 1.04 3.608 1.587 1.723.548 3.136 1.133 4.239 1.766 2.69 1.529 4.032 3.637 4.032 6.33 0 2.152-.82 3.837-2.461 5.065-1.642 1.229-3.891 1.84-6.75 1.84-2.016 0-3.842-.359-5.477-1.073-1.636-.713-2.864-1.695-3.69-2.934-.826-1.245-1.239-2.678-1.239-4.298h6.016c0 1.315.342 2.286 1.032 2.913.69.623 1.81.939 3.358.939.989 0 1.777-.209 2.348-.633.581-.429.869-1.019.869-1.786zM118.716 83.92l-1.766 4.592 4.538-1.417 3.613 3.07.207-4.915 3.994-2.699-4.407-1.615-1.141-4.737-2.935 3.91-4.7-.224 2.597 4.034zM113.874 84.139l-.043 2.082-1.56-1.267-1.907.644.701-1.963-1.136-1.69 1.994.059 1.207-1.69.527 2 1.885.645-1.668 1.18zM197.919 88.35c0-.29.065-.557.201-.804s.321-.44.56-.585c.239-.14.5-.215.777-.215s.538.07.777.215c.239.14.424.338.56.585.135.247.201.515.201.805 0 .29-.066.558-.201.804-.136.247-.321.44-.56.585a1.462 1.462 0 0 1-.777.215c-.277 0-.538-.07-.777-.215a1.536 1.536 0 0 1-.56-.585 1.706 1.706 0 0 1-.201-.804zm2.815 0a1.39 1.39 0 0 0-.163-.66 1.256 1.256 0 0 0-.462-.487 1.196 1.196 0 0 0-.652-.183c-.228 0-.446.06-.641.177a1.293 1.293 0 0 0-.468.483c-.114.204-.168.43-.168.67a1.353 1.353 0 0 0 .63 1.16c.196.117.413.176.641.176.234 0 .446-.059.647-.182s.353-.284.462-.488c.119-.204.174-.43.174-.665zm-1.587.162v.724h-.326v-1.819h.609c.222 0 .396.048.516.145a.491.491 0 0 1 .185.413c0 .166-.087.295-.261.386a.38.38 0 0 1 .195.183c.038.08.055.177.055.295s0 .198.005.247a.717.717 0 0 0 .027.123v.032h-.337c-.016-.048-.027-.188-.027-.413 0-.107-.021-.188-.07-.236-.049-.048-.125-.07-.239-.07h-.332v-.01zm0-.285h.31a.453.453 0 0 0 .25-.064.215.215 0 0 0 .103-.183c0-.102-.027-.171-.076-.214-.049-.043-.147-.065-.277-.065h-.305v.526h-.005z"/></g><defs><clipPath id="clip0"><path fill="#fff" transform="translate(14 53)" d="M0 0h187v59H0z"/></clipPath></defs></svg>