<svg width="32" height="32" viewBox="0 0 32 32" fill="none" xmlns="http://www.w3.org/2000/svg"><path d="M12.01 11.2l2.63 5.32.41.84.92.14 5.87.86-4.24 4.14-.67.65.16.92 1 5.85-5.25-2.76-.83-.44-.83.44-5.25 2.76 1-5.85.16-.92-.66-.65-4.25-4.14 5.87-.85.93-.13.41-.84 2.62-5.34zm0-2.2c-.51 0-1.02.26-1.29.8l-2.93 5.95-6.56.95c-1.18.17-1.65 1.62-.8 2.45l4.75 4.63-1.12 6.54c-.15.93.58 1.68 1.41 1.68.22 0 .45-.05.67-.17l5.87-3.09 5.87 3.09c.22.12.45.17.67.17.83 0 1.58-.75 1.41-1.68l-1.12-6.54 4.75-4.63c.86-.82.39-2.28-.79-2.45l-6.56-.96-2.94-5.95c-.26-.53-.78-.79-1.29-.79zM31.57 12.67l-2.27-.33-1.02-2.06a.496.496 0 0 0-.89 0l-1.02 2.06-2.27.33a.5.5 0 0 0-.28.85l1.64 1.6-.39 2.26c-.07.41.36.72.72.52l2.03-1.07 2.03 1.07c.36.19.79-.12.72-.52l-.39-2.26 1.64-1.6c.32-.29.16-.79-.25-.85zM25.51 3.34l-2.84-.41L21.4.34a.627.627 0 0 0-1.12 0l-1.27 2.57-2.84.41c-.51.07-.71.7-.34 1.06l2.06 2-.49 2.84c-.09.51.45.89.9.66l2.54-1.34 2.54 1.34c.45.24.99-.14.9-.66l-.48-2.83 2.06-2c.36-.36.16-.99-.35-1.05z" fill="#D40029"/></svg>