<svg width="32" height="32" viewBox="0 0 32 32" fill="none" xmlns="http://www.w3.org/2000/svg"><path d="M16 9.01c2.05 0 3.72 1.67 3.72 3.72 0 2.05-1.67 3.72-3.72 3.72-2.05 0-3.72-1.67-3.72-3.72 0-2.05 1.67-3.72 3.72-3.72zm0-1.78c-3.04 0-5.5 2.46-5.5 5.5s2.46 5.5 5.5 5.5 5.5-2.46 5.5-5.5-2.46-5.5-5.5-5.5z" fill="#D40029"/><path d="M16 1.78c7.84 0 14.22 6.38 14.22 14.22 0 7.84-6.38 14.22-14.22 14.22-7.84 0-14.22-6.38-14.22-14.22C1.78 8.16 8.16 1.78 16 1.78zM16 0C7.16 0 0 7.16 0 16s7.16 16 16 16 16-7.16 16-16S24.84 0 16 0z" fill="#D40029"/><path d="M17.67 20.15v1.78c4.41 0 5.34 4.09 5.51 6.34A14.1 14.1 0 0 1 16 30.22a14.1 14.1 0 0 1-7.18-1.95c.18-2.25 1.11-6.34 5.53-6.34H17.66l.01-1.78zm0 0H16h-1.67c-.63 0-7.33.05-7.33 9.08C9.56 30.98 12.66 32 16 32s6.44-1.02 9-2.77c0-9.03-6.7-9.08-7.33-9.08z" fill="#D40029"/></svg>