<svg width="24" height="21" viewBox="0 0 24 21" fill="none" xmlns="http://www.w3.org/2000/svg"><path d="M23.357 3H.643A.643.643 0 0 1 0 2.357V.643C0 .288.288 0 .643 0h22.714c.355 0 .643.288.643.643v1.714a.643.643 0 0 1-.643.643zm0 8.571H.643A.643.643 0 0 1 0 10.93V9.214c0-.355.288-.643.643-.643h22.714c.355 0 .643.288.643.643v1.715a.643.643 0 0 1-.643.642zm0 8.572H.643A.643.643 0 0 1 0 19.5v-1.714c0-.355.288-.643.643-.643h22.714c.355 0 .643.288.643.643V19.5a.643.643 0 0 1-.643.643z" fill="#333"/></svg>