<svg version="1.1" id="Layer_1" xmlns="http://www.w3.org/2000/svg" x="0" y="0" viewBox="0 0 51.8 47" xml:space="preserve"><style>.st2{fill:#fff}</style><g id="Group_5" transform="translate(-596 -556)"><g id="NEW_" transform="translate(596 556)"><g id="NEW_2"><path id="Path_1" d="M0 14.8v30l51.8-15V0L0 14.8z" fill="#d1112d"/><path id="Path_2" d="M9.7 47v-5L0 44.8 9.7 47z" fill="#930026"/><g id="Group_2" transform="translate(4.88 10.283)"><path id="Path_3" class="st2" d="M10.4 20.8l-2.9.9-4.4-6.1L3 23l-3 .9.1-11.8 2.9-.9 4.4 6.1.1-7.4 3-.9-.1 11.8z"/><path id="Path_4" class="st2" d="M20.2 12.9l-4.7 1.4v2.8l5.6-1.7v2.2l-8.6 2.6.1-11.8 8.6-2.6V8l-5.6 1.7v2.5l4.7-1.4-.1 2.1z"/><path id="Path_5" class="st2" d="M32 10l1.4-7.7 3-.9-2.6 12.5-3.1.9L29 8.6l-1.6 7.1-3.1.9-2.8-10.9 2.9-.9 1.5 6.9 1.6-7.8 2.6-.8L32 10z"/><path id="Path_6" class="st2" d="M37.6 11.6c-.1-.4 0-.8.3-1.1.3-.4.6-.6 1.1-.7.4-.1.8-.1 1.2 0 .3.1.6.4.6.8.1.4 0 .8-.3 1.1-.3.4-.7.6-1.1.7-.4.1-.8.1-1.2 0-.3-.2-.6-.5-.6-.8zm2.8-3.4l-2.4.7-.3-8 3.1-.9-.4 8.2z"/></g></g></g></g></svg>