<?xml version="1.0" encoding="utf-8"?>
<!-- Generator: Adobe Illustrator 26.1.0, SVG Export Plug-In . SVG Version: 6.00 Build 0)  -->
<svg version="1.1" id="Layer_1" xmlns="http://www.w3.org/2000/svg" xmlns:xlink="http://www.w3.org/1999/xlink" x="0px" y="0px"
	 width="310px" height="310px" viewBox="0 0 310 310" style="enable-background:new 0 0 310 310;" xml:space="preserve">
<style type="text/css">
	.st0{fill:#D40029;}
	.st1{fill:#FFFFFF;}
</style>
<circle class="st0" cx="155" cy="155" r="155"/>
<g>
	<path class="st1" d="M92.5,178.9c-1.7,1.3-4,1.9-6.9,1.9c-4.6,0-7.9-0.9-9.9-2.8c-2-1.9-3-4.8-3-8.7H54.9c0,4.8,1.2,9.1,3.6,12.8
		c2.4,3.7,6.1,6.6,10.9,8.8c4.8,2.1,10.2,3.2,16.1,3.2c8.4,0,15-1.8,19.9-5.5c4.8-3.7,7.2-8.7,7.2-15.1c0-8-4-14.3-11.9-18.9
		c-3.3-1.9-7.4-3.6-12.5-5.3c-5.1-1.6-8.6-3.2-10.6-4.7s-3-3.2-3-5.1c0-2.1,0.9-3.9,2.7-5.3c1.8-1.4,4.3-2.1,7.5-2.1
		c3.1,0,5.6,0.8,7.4,2.5c1.8,1.6,2.7,4,2.7,6.9h17.6c0-4.5-1.2-8.4-3.5-11.9s-5.6-6.1-9.7-8c-4.2-1.9-8.9-2.8-14.2-2.8
		c-5.4,0-10.3,0.9-14.6,2.6s-7.7,4.1-10,7.2c-2.4,3.1-3.5,6.7-3.5,10.7c0,8.2,4.7,14.6,14.2,19.2c2.9,1.4,6.7,2.9,11.3,4.5
		c4.6,1.5,7.8,3,9.6,4.5c1.8,1.4,2.7,3.5,2.7,6C95,175.8,94.2,177.6,92.5,178.9z"/>
	<path class="st1" d="M168.1,193.1v-0.9c-1.5-2.6-2.2-6.5-2.3-11.5v-24.1c-0.1-5.9-2.2-10.5-6.2-13.9s-9.5-5.1-16.5-5.1
		c-6.9,0-12.7,1.6-17.1,4.9c-4.5,3.3-6.7,7.6-6.7,12.8h17c0-4,2-6,6-6c4.3,0,6.5,2.5,6.5,7.5v2.9h-5.2c-8.3,0-14.7,1.5-19,4.5
		c-4.4,3-6.5,7.5-6.5,13.4c0,4.7,1.8,8.6,5.4,11.7c3.6,3.1,7.9,4.7,13.1,4.7c5.6,0,10-2,13.1-5.9c0.5,2.1,1,3.8,1.6,4.9h16.8
		L168.1,193.1L168.1,193.1z M136.6,180.6c-1-1-1.6-2.2-1.6-3.7c0-5.3,3-7.9,8.9-7.9h4.9v8.7c-0.6,1.1-1.6,2.2-3,3.1
		c-1.4,0.9-3.1,1.4-5.3,1.4C139.1,182.1,137.6,181.6,136.6,180.6z"/>
	<path class="st1" d="M193.1,115.9h-17v77.3h17V115.9z"/>
	<path class="st1" d="M242.6,191.6c3.9-1.7,6.9-4,9-7l-7.7-9.2c-3,3.8-7.2,5.6-12.6,5.6c-3.3,0-5.9-0.9-7.9-2.6
		c-2-1.7-3.4-4.1-4-7.2h33.7v-6.6c0-8.5-2.2-15.1-6.6-19.8c-4.4-4.7-10.5-7.1-18.1-7.1c-5.4,0-10.1,1.2-14.1,3.5s-7,5.6-9,9.9
		c-2.1,4.3-3.1,9.2-3.1,14.7v1.4c0,8,2.6,14.5,7.7,19.4c5.2,5,11.9,7.5,20.3,7.5C234.6,194.1,238.8,193.2,242.6,191.6z M234.3,152.9
		c1.4,1.5,2.1,3.6,2.1,6.3v1.3h-17.1c0.9-6.6,3.9-9.9,8.9-9.9C230.8,150.8,232.9,151.4,234.3,152.9z"/>
</g>
</svg>
